<?xml version="1.0" encoding="utf-8"?>
<!-- Generator: Adobe Illustrator 22.1.0, SVG Export Plug-In . SVG Version: 6.00 Build 0)  -->
<svg version="1.1" id="レイヤー_1" xmlns="http://www.w3.org/2000/svg" xmlns:xlink="http://www.w3.org/1999/xlink" x="0px"
	 y="0px" viewBox="0 0 24 24" style="enable-background:new 0 0 24 24;" xml:space="preserve">
<g>
	<path d="M6.8,10.2c-0.7,0-1.3,0.2-1.8,0.5S4,11.5,3.6,12L1,16.5V5.9C1,5.4,1.2,5,1.5,4.6c0.4-0.4,0.8-0.5,1.3-0.5h6.1l2.4,2.4h6.1
		c0.5,0,0.9,0.2,1.3,0.5c0.4,0.4,0.5,0.8,0.5,1.3v1.8H6.8z M22.9,12.8c0.2-0.3,0.2-0.6,0-0.9c-0.2-0.3-0.4-0.5-0.8-0.5H6.8
		c-0.4,0-0.8,0.1-1.2,0.3s-0.7,0.5-0.9,0.9l-2.8,4.7c-0.2,0.3-0.2,0.6,0,0.9s0.4,0.5,0.8,0.5H18c0.4,0,0.8-0.1,1.2-0.3
		c0.4-0.2,0.7-0.5,0.9-0.9L22.9,12.8z"/>
</g>
</svg>
