<?xml version="1.0" encoding="utf-8"?>
<!-- Generator: Adobe Illustrator 22.1.0, SVG Export Plug-In . SVG Version: 6.00 Build 0)  -->
<svg version="1.1" id="レイヤー_1" xmlns="http://www.w3.org/2000/svg" xmlns:xlink="http://www.w3.org/1999/xlink" x="0px"
	 y="0px" viewBox="0 0 24 24" style="enable-background:new 0 0 24 24;" xml:space="preserve">
<g>
	<path d="M8.4,13.6c0.3,0,0.5,0.1,0.7,0.3c0.2,0.2,0.3,0.4,0.3,0.7c0,0.3-0.1,0.5-0.3,0.7l-1.7,1.7c0.6,0.6,1.3,1,2.1,1.3
		c0.8,0.3,1.6,0.5,2.4,0.5c1.5,0,2.9-0.5,4.1-1.4c1.2-0.9,2-2.1,2.4-3.6c0-0.1,0.1-0.2,0.2-0.3c0.1-0.1,0.2-0.1,0.3-0.1h2.3
		c0.2,0,0.3,0.1,0.4,0.2c0.1,0.1,0.1,0.2,0.1,0.4c-0.3,1.5-0.9,2.9-1.8,4.1c-0.9,1.2-2.1,2.2-3.4,2.9c-1.4,0.7-2.8,1-4.4,1
		c-1.3,0-2.5-0.2-3.7-0.7c-1.2-0.5-2.2-1.1-3.1-2l-1.4,1.4c-0.2,0.2-0.4,0.3-0.7,0.3s-0.5-0.1-0.7-0.3c-0.2-0.2-0.3-0.4-0.3-0.7
		v-5.3c0-0.3,0.1-0.5,0.3-0.7c0.2-0.2,0.4-0.3,0.7-0.3H8.4z M14.4,5.8c-0.8-0.3-1.6-0.5-2.4-0.5c-1.5,0-2.9,0.5-4.1,1.4
		s-2,2.1-2.4,3.6c0,0.1-0.1,0.2-0.2,0.3c-0.1,0.1-0.2,0.1-0.3,0.1H2.8c-0.2,0-0.3-0.1-0.4-0.2c-0.1-0.1-0.1-0.2-0.1-0.4
		c0.3-1.5,0.9-2.9,1.8-4.1s2.1-2.2,3.4-2.9s2.8-1,4.4-1c1.3,0,2.5,0.2,3.7,0.7s2.2,1.1,3.1,2l1.4-1.4c0.2-0.2,0.4-0.3,0.7-0.3
		c0.3,0,0.5,0.1,0.7,0.3c0.2,0.2,0.3,0.4,0.3,0.7v5.3c0,0.3-0.1,0.5-0.3,0.7s-0.4,0.3-0.7,0.3h-5.3c-0.3,0-0.5-0.1-0.7-0.3
		c-0.2-0.2-0.3-0.4-0.3-0.7c0-0.3,0.1-0.5,0.3-0.7l1.7-1.7C15.9,6.6,15.2,6.1,14.4,5.8z"/>
</g>
</svg>
