<?xml version="1.0" encoding="utf-8"?>
<!-- Generator: Adobe Illustrator 22.1.0, SVG Export Plug-In . SVG Version: 6.00 Build 0)  -->
<svg version="1.1" id="レイヤー_1" xmlns="http://www.w3.org/2000/svg" xmlns:xlink="http://www.w3.org/1999/xlink" x="0px"
	 y="0px" viewBox="0 0 24 24" style="enable-background:new 0 0 24 24;" xml:space="preserve">
<g>
	<path d="M2.9,3.5C2.9,3.2,3,3,3.2,2.8s0.4-0.3,0.7-0.3h4.5l0.4-0.8C8.9,1.6,9,1.4,9.2,1.4s0.3-0.1,0.5-0.1h4.6c0.2,0,0.4,0,0.5,0.1
		s0.3,0.2,0.4,0.4l0.4,0.8h4.5c0.3,0,0.5,0.1,0.7,0.3C21,3,21.1,3.2,21.1,3.5v1.1c0,0.1,0,0.3-0.1,0.3c-0.1,0.1-0.2,0.1-0.3,0.1H3.4
		C3.3,5.1,3.1,5.1,3,5C3,4.9,2.9,4.8,2.9,4.6V3.5z M18.9,20.2c0,0.5-0.2,0.9-0.6,1.3S17.5,22,17,22H7c-0.5,0-1-0.2-1.3-0.5
		s-0.6-0.8-0.6-1.3L4.2,6.9c0-0.1,0-0.3,0.1-0.4c0.1-0.1,0.2-0.2,0.3-0.2h14.5c0.1,0,0.3,0.1,0.3,0.2c0.1,0.1,0.1,0.2,0.1,0.4
		L18.9,20.2z"/>
</g>
</svg>
